<svg id="SvgjsSvg1000" xmlns="http://www.w3.org/2000/svg" version="1.1" xmlns:xlink="http://www.w3.org/1999/xlink" xmlns:svgjs="http://svgjs.com/svgjs" width="42" height="37" viewBox="0 0 42 37"><title>Shape 1</title><desc>Created with Avocode.</desc><defs id="SvgjsDefs1001"></defs><path id="SvgjsPath1007" d="M540.008 856.008L499.992 856.008C499.444 856.008 499 856.4540000000001 499 857.004C499 857.553 499.444 858 499.992 858L540.008 858C540.556 858 541 857.553 541 857.004C541 856.4540000000001 540.556 856.008 540.008 856.008ZM537.421 825.699L530.4530000000001 825.699C529.9050000000001 825.699 529.46 826.145 529.46 826.694L529.46 833.462L524.476 833.462L524.476 821.995C524.476 821.445 524.032 821 523.484 821L516.515 821C515.968 821 515.523 821.445 515.523 821.995L515.523 840.831L510.53900000000004 840.831L510.53900000000004 832.369C510.53900000000004 831.82 510.095 831.374 509.547 831.374L502.579 831.374C502.031 831.374 501.586 831.82 501.586 832.369L501.586 851.426C501.586 851.976 502.031 852.421 502.579 852.421L537.421 852.421C537.969 852.421 538.413 851.976 538.413 851.426L538.413 826.6940000000001C538.413 826.1450000000001 537.969 825.6990000000001 537.421 825.6990000000001ZM522.492 850.43L517.5079999999999 850.43L517.5079999999999 822.9899999999999L522.492 822.9899999999999ZM531.445 850.43L531.445 827.6899999999999L536.4290000000001 827.6899999999999L536.4290000000001 850.43ZM508.555 850.43L503.571 850.43L503.571 833.3649999999999L508.555 833.3649999999999ZM529.46 850.43L524.476 850.43L524.476 835.453L529.46 835.453ZM515.523 850.43L510.53900000000004 850.43L510.53900000000004 842.822L515.523 842.822Z " fill="#000000" fill-opacity="1" transform="matrix(1,0,0,1,-499,-821)"></path><path id="SvgjsPath1008" d="M540.008 856.008L499.992 856.008C499.444 856.008 499 856.4540000000001 499 857.004C499 857.553 499.444 858 499.992 858L540.008 858C540.556 858 541 857.553 541 857.004C541 856.4540000000001 540.556 856.008 540.008 856.008ZM537.421 825.699L530.4530000000001 825.699C529.9050000000001 825.699 529.46 826.145 529.46 826.694L529.46 833.462L524.476 833.462L524.476 821.995C524.476 821.445 524.032 821 523.484 821L516.515 821C515.968 821 515.523 821.445 515.523 821.995L515.523 840.831L510.53900000000004 840.831L510.53900000000004 832.369C510.53900000000004 831.82 510.095 831.374 509.547 831.374L502.579 831.374C502.031 831.374 501.586 831.82 501.586 832.369L501.586 851.426C501.586 851.976 502.031 852.421 502.579 852.421L537.421 852.421C537.969 852.421 538.413 851.976 538.413 851.426L538.413 826.6940000000001C538.413 826.1450000000001 537.969 825.6990000000001 537.421 825.6990000000001ZM522.492 850.43L517.5079999999999 850.43L517.5079999999999 822.9899999999999L522.492 822.9899999999999ZM531.445 850.43L531.445 827.6899999999999L536.4290000000001 827.6899999999999L536.4290000000001 850.43ZM508.555 850.43L503.571 850.43L503.571 833.3649999999999L508.555 833.3649999999999ZM529.46 850.43L524.476 850.43L524.476 835.453L529.46 835.453ZM515.523 850.43L510.53900000000004 850.43L510.53900000000004 842.822L515.523 842.822Z " fill="#484848" fill-opacity="1" transform="matrix(1,0,0,1,-499,-821)"></path></svg>