<svg id="SvgjsSvg1000" xmlns="http://www.w3.org/2000/svg" version="1.1" xmlns:xlink="http://www.w3.org/1999/xlink" xmlns:svgjs="http://svgjs.com/svgjs" width="44" height="34" viewBox="0 0 44 34"><title>Shape 1</title><desc>Created with Avocode.</desc><defs id="SvgjsDefs1001"></defs><path id="SvgjsPath1007" d="M502.228 1168.2L512.2620000000001 1168.2C515.368 1168.2 518.1690000000001 1169.95 519.571 1172.77L525.702 1185.09C526.684 1187.06 528.645 1188.28 530.82 1188.28L540.8820000000001 1188.28L537.4000000000001 1185.27C536.8840000000001 1184.82 536.8220000000001 1184.03 537.2620000000001 1183.51C537.7020000000001 1182.98 538.4770000000001 1182.92 538.993 1183.37L544.282 1187.9499999999998C544.738 1188.35 545 1188.9199999999998 545 1189.5299999999997C545 1190.1399999999996 544.738 1190.7199999999998 544.282 1191.1199999999997L538.993 1195.6999999999996C538.7620000000001 1195.8999999999996 538.479 1195.9999999999995 538.197 1195.9999999999995C537.85 1195.9999999999995 537.505 1195.8499999999995 537.2620000000001 1195.5599999999995C536.822 1195.0399999999995 536.884 1194.2499999999995 537.4000000000001 1193.7999999999995L540.8810000000001 1190.7799999999995L530.82 1190.7799999999995C527.714 1190.7799999999995 524.913 1189.0299999999995 523.5110000000001 1186.2099999999996L517.3810000000001 1173.8999999999996C516.3980000000001 1171.9299999999996 514.4370000000001 1170.6999999999996 512.2620000000001 1170.6999999999996L502.22800000000007 1170.6999999999996C501.55000000000007 1170.6999999999996 501.00000000000006 1170.1399999999996 501.00000000000006 1169.4499999999996C501.00000000000006 1168.7599999999995 501.55000000000007 1168.1999999999996 502.22800000000007 1168.1999999999996ZM522.858 1174.1L523.511 1172.78C524.914 1169.97 527.7149999999999 1168.21 530.8199999999999 1168.21L540.881 1168.21L537.4 1165.2C536.884 1164.75 536.822 1163.96 537.262 1163.44C537.702 1162.91 538.477 1162.8500000000001 538.9929999999999 1163.3L544.2819999999999 1167.8799999999999C544.7379999999999 1168.28 544.9999999999999 1168.85 544.9999999999999 1169.4599999999998C544.9999999999999 1170.0699999999997 544.7379999999999 1170.6499999999999 544.2819999999999 1171.0499999999997L538.9929999999999 1175.6299999999997C538.762 1175.8299999999997 538.4789999999999 1175.9299999999996 538.1969999999999 1175.9299999999996C537.8499999999999 1175.9299999999996 537.5049999999999 1175.7799999999995 537.262 1175.4899999999996C536.8219999999999 1174.9699999999996 536.8839999999999 1174.1799999999996 537.4 1173.7299999999996L540.882 1170.7099999999996L530.8199999999999 1170.7099999999996C528.645 1170.7099999999996 526.684 1171.9399999999996 525.7019999999999 1173.9099999999996L525.0489999999999 1175.2299999999996C524.8319999999999 1175.6599999999996 524.3999999999999 1175.9099999999996 523.9519999999999 1175.9099999999996C523.7659999999998 1175.9099999999996 523.5769999999999 1175.8699999999997 523.3989999999999 1175.7799999999995C522.7939999999999 1175.4599999999996 522.5509999999999 1174.7099999999996 522.8579999999998 1174.0999999999995ZM502.228 1188.3L512.2620000000001 1188.3C514.437 1188.3 516.398 1187.07 517.3810000000001 1185.1L518.041 1183.77C518.3480000000001 1183.16 519.0870000000001 1182.91 519.691 1183.22C520.296 1183.54 520.538 1184.29 520.231 1184.9L519.571 1186.23C518.169 1189.04 515.368 1190.8 512.2620000000001 1190.8L502.22800000000007 1190.8C501.55000000000007 1190.8 501.00000000000006 1190.24 501.00000000000006 1189.55C501.00000000000006 1188.86 501.55000000000007 1188.3 502.22800000000007 1188.3Z " fill="#000000" fill-opacity="1" transform="matrix(1,0,0,1,-501,-1162)"></path><path id="SvgjsPath1008" d="M502.228 1168.2L512.2620000000001 1168.2C515.368 1168.2 518.1690000000001 1169.95 519.571 1172.77L525.702 1185.09C526.684 1187.06 528.645 1188.28 530.82 1188.28L540.8820000000001 1188.28L537.4000000000001 1185.27C536.8840000000001 1184.82 536.8220000000001 1184.03 537.2620000000001 1183.51C537.7020000000001 1182.98 538.4770000000001 1182.92 538.993 1183.37L544.282 1187.9499999999998C544.738 1188.35 545 1188.9199999999998 545 1189.5299999999997C545 1190.1399999999996 544.738 1190.7199999999998 544.282 1191.1199999999997L538.993 1195.6999999999996C538.7620000000001 1195.8999999999996 538.479 1195.9999999999995 538.197 1195.9999999999995C537.85 1195.9999999999995 537.505 1195.8499999999995 537.2620000000001 1195.5599999999995C536.822 1195.0399999999995 536.884 1194.2499999999995 537.4000000000001 1193.7999999999995L540.8810000000001 1190.7799999999995L530.82 1190.7799999999995C527.714 1190.7799999999995 524.913 1189.0299999999995 523.5110000000001 1186.2099999999996L517.3810000000001 1173.8999999999996C516.3980000000001 1171.9299999999996 514.4370000000001 1170.6999999999996 512.2620000000001 1170.6999999999996L502.22800000000007 1170.6999999999996C501.55000000000007 1170.6999999999996 501.00000000000006 1170.1399999999996 501.00000000000006 1169.4499999999996C501.00000000000006 1168.7599999999995 501.55000000000007 1168.1999999999996 502.22800000000007 1168.1999999999996ZM522.858 1174.1L523.511 1172.78C524.914 1169.97 527.7149999999999 1168.21 530.8199999999999 1168.21L540.881 1168.21L537.4 1165.2C536.884 1164.75 536.822 1163.96 537.262 1163.44C537.702 1162.91 538.477 1162.8500000000001 538.9929999999999 1163.3L544.2819999999999 1167.8799999999999C544.7379999999999 1168.28 544.9999999999999 1168.85 544.9999999999999 1169.4599999999998C544.9999999999999 1170.0699999999997 544.7379999999999 1170.6499999999999 544.2819999999999 1171.0499999999997L538.9929999999999 1175.6299999999997C538.762 1175.8299999999997 538.4789999999999 1175.9299999999996 538.1969999999999 1175.9299999999996C537.8499999999999 1175.9299999999996 537.5049999999999 1175.7799999999995 537.262 1175.4899999999996C536.8219999999999 1174.9699999999996 536.8839999999999 1174.1799999999996 537.4 1173.7299999999996L540.882 1170.7099999999996L530.8199999999999 1170.7099999999996C528.645 1170.7099999999996 526.684 1171.9399999999996 525.7019999999999 1173.9099999999996L525.0489999999999 1175.2299999999996C524.8319999999999 1175.6599999999996 524.3999999999999 1175.9099999999996 523.9519999999999 1175.9099999999996C523.7659999999998 1175.9099999999996 523.5769999999999 1175.8699999999997 523.3989999999999 1175.7799999999995C522.7939999999999 1175.4599999999996 522.5509999999999 1174.7099999999996 522.8579999999998 1174.0999999999995ZM502.228 1188.3L512.2620000000001 1188.3C514.437 1188.3 516.398 1187.07 517.3810000000001 1185.1L518.041 1183.77C518.3480000000001 1183.16 519.0870000000001 1182.91 519.691 1183.22C520.296 1183.54 520.538 1184.29 520.231 1184.9L519.571 1186.23C518.169 1189.04 515.368 1190.8 512.2620000000001 1190.8L502.22800000000007 1190.8C501.55000000000007 1190.8 501.00000000000006 1190.24 501.00000000000006 1189.55C501.00000000000006 1188.86 501.55000000000007 1188.3 502.22800000000007 1188.3Z " fill="#484848" fill-opacity="1" transform="matrix(1,0,0,1,-501,-1162)"></path></svg>