<svg id="SvgjsSvg1009" xmlns="http://www.w3.org/2000/svg" version="1.1" xmlns:xlink="http://www.w3.org/1999/xlink" xmlns:svgjs="http://svgjs.com/svgjs" width="23" height="35" viewBox="0 0 23 35"><title>Shape 1</title><desc>Created with Avocode.</desc><defs id="SvgjsDefs1010"></defs><path id="SvgjsPath1011" d="M530.128 1005.48C530.985 1004.6 531.457 1003.44 531.457 1002.21L531.457 999.797L532.002 999.797C533.1039999999999 999.797 534 998.884 534 997.7610000000001L534 996.0350000000001C534 994.9130000000001 533.104 993.9990000000001 532.003 993.9990000000001L512.9970000000001 993.9990000000001C511.8960000000001 993.9990000000001 511.00000000000006 994.9130000000001 511.00000000000006 996.0350000000001L511.00000000000006 997.7610000000001C511.00000000000006 998.8840000000001 511.8960000000001 999.797 512.9970000000001 999.797L513.5430000000001 999.797L513.5430000000001 1002.21C513.5430000000001 1003.44 514.0140000000001 1004.6 514.8720000000001 1005.48L520.1390000000001 1010.85C520.2220000000001 1010.9300000000001 520.2220000000001 1011.07 520.1390000000001 1011.15L514.8720000000001 1016.52C514.0140000000001 1017.39 513.5430000000001 1018.56 513.5430000000001 1019.79L513.5430000000001 1022.1999999999999L513.0170000000002 1022.1999999999999C511.90500000000014 1022.1999999999999 511.00000000000017 1023.1199999999999 511.00000000000017 1024.26L511.00000000000017 1025.94C511.00000000000017 1027.0800000000002 511.90500000000014 1028 513.0170000000002 1028L531.9820000000002 1028C533.0950000000003 1028 534.0000000000002 1027.08 534.0000000000002 1025.94L534.0000000000002 1024.26C534.0000000000002 1023.12 533.0950000000003 1022.2 531.9820000000002 1022.2L531.4570000000002 1022.2L531.4570000000002 1019.7900000000001C531.4570000000002 1018.5500000000001 530.9850000000002 1017.3900000000001 530.1280000000003 1016.5200000000001L524.8610000000002 1011.1500000000001C524.7780000000002 1011.07 524.7780000000002 1010.9300000000001 524.8610000000002 1010.8500000000001ZM523.72 1012.32L528.9870000000001 1017.6800000000001C529.5390000000001 1018.2500000000001 529.8430000000001 1018.99 529.8430000000001 1019.7900000000001L529.8430000000001 1021.6800000000001L523.7400000000001 1018.48C522.9640000000002 1018.07 522.0360000000002 1018.07 521.2590000000001 1018.48L515.1570000000002 1021.6800000000001L515.1570000000002 1019.7900000000001C515.1570000000002 1018.9900000000001 515.4610000000001 1018.2500000000001 516.0130000000001 1017.6800000000001L521.2800000000002 1012.32C521.9920000000002 1011.59 521.9920000000002 1010.4100000000001 521.2800000000002 1009.6800000000001L518.0440000000002 1006.3800000000001L523.9920000000002 1006.3800000000001C524.4370000000002 1006.3800000000001 524.7990000000002 1006.0200000000001 524.7990000000002 1005.5600000000001C524.7990000000002 1005.11 524.4370000000002 1004.74 523.9920000000002 1004.74L516.4300000000002 1004.74L516.0130000000001 1004.3100000000001C515.4610000000001 1003.7500000000001 515.1570000000002 1003.0000000000001 515.1570000000002 1002.21L515.1570000000002 999.797L529.8430000000002 999.797L529.8430000000002 1002.21C529.8430000000002 1003 529.5390000000002 1003.75 528.9870000000002 1004.3100000000001L523.7200000000001 1009.6800000000001C523.0070000000002 1010.4100000000001 523.0070000000002 1011.59 523.7200000000001 1012.32ZM512.997 998.152C512.786 998.152 512.6139999999999 997.976 512.6139999999999 997.7610000000001L512.6139999999999 996.0350000000001C512.6139999999999 995.8190000000001 512.786 995.6440000000001 512.997 995.6440000000001L532.002 995.6440000000001C532.2139999999999 995.6440000000001 532.386 995.8190000000001 532.386 996.0350000000001L532.386 997.7610000000001C532.386 997.9760000000001 532.2139999999999 998.152 532.002 998.152ZM531.982 1023.85C532.2049999999999 1023.85 532.386 1024.03 532.386 1024.26L532.386 1025.94C532.386 1026.17 532.2049999999999 1026.3500000000001 531.982 1026.3500000000001L513.0169999999999 1026.3500000000001C512.795 1026.3500000000001 512.6139999999999 1026.17 512.6139999999999 1025.94L512.6139999999999 1024.26C512.6139999999999 1024.03 512.795 1023.85 513.0169999999999 1023.85L514.3509999999999 1023.85C514.3509999999999 1023.85 514.3519999999999 1023.85 514.3529999999998 1023.85C514.3539999999998 1023.85 514.3549999999998 1023.85 514.3559999999999 1023.85ZM517.684 1022.2L521.9979999999999 1019.94C522.3119999999999 1019.7800000000001 522.688 1019.7800000000001 523.002 1019.94L527.3149999999999 1022.2ZM522.5 1013.93C522.054 1013.93 521.693 1014.3 521.693 1014.75L521.693 1015.81C521.693 1016.26 522.054 1016.63 522.5 1016.63C522.946 1016.63 523.307 1016.26 523.307 1015.81L523.307 1014.75C523.307 1014.3 522.946 1013.93 522.5 1013.93Z " fill="#000000" fill-opacity="1" transform="matrix(1,0,0,1,-511,-993)"></path><path id="SvgjsPath1012" d="M530.128 1005.48C530.985 1004.6 531.457 1003.44 531.457 1002.21L531.457 999.797L532.002 999.797C533.1039999999999 999.797 534 998.884 534 997.7610000000001L534 996.0350000000001C534 994.9130000000001 533.104 993.9990000000001 532.003 993.9990000000001L512.9970000000001 993.9990000000001C511.8960000000001 993.9990000000001 511.00000000000006 994.9130000000001 511.00000000000006 996.0350000000001L511.00000000000006 997.7610000000001C511.00000000000006 998.8840000000001 511.8960000000001 999.797 512.9970000000001 999.797L513.5430000000001 999.797L513.5430000000001 1002.21C513.5430000000001 1003.44 514.0140000000001 1004.6 514.8720000000001 1005.48L520.1390000000001 1010.85C520.2220000000001 1010.9300000000001 520.2220000000001 1011.07 520.1390000000001 1011.15L514.8720000000001 1016.52C514.0140000000001 1017.39 513.5430000000001 1018.56 513.5430000000001 1019.79L513.5430000000001 1022.1999999999999L513.0170000000002 1022.1999999999999C511.90500000000014 1022.1999999999999 511.00000000000017 1023.1199999999999 511.00000000000017 1024.26L511.00000000000017 1025.94C511.00000000000017 1027.0800000000002 511.90500000000014 1028 513.0170000000002 1028L531.9820000000002 1028C533.0950000000003 1028 534.0000000000002 1027.08 534.0000000000002 1025.94L534.0000000000002 1024.26C534.0000000000002 1023.12 533.0950000000003 1022.2 531.9820000000002 1022.2L531.4570000000002 1022.2L531.4570000000002 1019.7900000000001C531.4570000000002 1018.5500000000001 530.9850000000002 1017.3900000000001 530.1280000000003 1016.5200000000001L524.8610000000002 1011.1500000000001C524.7780000000002 1011.07 524.7780000000002 1010.9300000000001 524.8610000000002 1010.8500000000001ZM523.72 1012.32L528.9870000000001 1017.6800000000001C529.5390000000001 1018.2500000000001 529.8430000000001 1018.99 529.8430000000001 1019.7900000000001L529.8430000000001 1021.6800000000001L523.7400000000001 1018.48C522.9640000000002 1018.07 522.0360000000002 1018.07 521.2590000000001 1018.48L515.1570000000002 1021.6800000000001L515.1570000000002 1019.7900000000001C515.1570000000002 1018.9900000000001 515.4610000000001 1018.2500000000001 516.0130000000001 1017.6800000000001L521.2800000000002 1012.32C521.9920000000002 1011.59 521.9920000000002 1010.4100000000001 521.2800000000002 1009.6800000000001L518.0440000000002 1006.3800000000001L523.9920000000002 1006.3800000000001C524.4370000000002 1006.3800000000001 524.7990000000002 1006.0200000000001 524.7990000000002 1005.5600000000001C524.7990000000002 1005.11 524.4370000000002 1004.74 523.9920000000002 1004.74L516.4300000000002 1004.74L516.0130000000001 1004.3100000000001C515.4610000000001 1003.7500000000001 515.1570000000002 1003.0000000000001 515.1570000000002 1002.21L515.1570000000002 999.797L529.8430000000002 999.797L529.8430000000002 1002.21C529.8430000000002 1003 529.5390000000002 1003.75 528.9870000000002 1004.3100000000001L523.7200000000001 1009.6800000000001C523.0070000000002 1010.4100000000001 523.0070000000002 1011.59 523.7200000000001 1012.32ZM512.997 998.152C512.786 998.152 512.6139999999999 997.976 512.6139999999999 997.7610000000001L512.6139999999999 996.0350000000001C512.6139999999999 995.8190000000001 512.786 995.6440000000001 512.997 995.6440000000001L532.002 995.6440000000001C532.2139999999999 995.6440000000001 532.386 995.8190000000001 532.386 996.0350000000001L532.386 997.7610000000001C532.386 997.9760000000001 532.2139999999999 998.152 532.002 998.152ZM531.982 1023.85C532.2049999999999 1023.85 532.386 1024.03 532.386 1024.26L532.386 1025.94C532.386 1026.17 532.2049999999999 1026.3500000000001 531.982 1026.3500000000001L513.0169999999999 1026.3500000000001C512.795 1026.3500000000001 512.6139999999999 1026.17 512.6139999999999 1025.94L512.6139999999999 1024.26C512.6139999999999 1024.03 512.795 1023.85 513.0169999999999 1023.85L514.3509999999999 1023.85C514.3509999999999 1023.85 514.3519999999999 1023.85 514.3529999999998 1023.85C514.3539999999998 1023.85 514.3549999999998 1023.85 514.3559999999999 1023.85ZM517.684 1022.2L521.9979999999999 1019.94C522.3119999999999 1019.7800000000001 522.688 1019.7800000000001 523.002 1019.94L527.3149999999999 1022.2ZM522.5 1013.93C522.054 1013.93 521.693 1014.3 521.693 1014.75L521.693 1015.81C521.693 1016.26 522.054 1016.63 522.5 1016.63C522.946 1016.63 523.307 1016.26 523.307 1015.81L523.307 1014.75C523.307 1014.3 522.946 1013.93 522.5 1013.93Z " fill="#484848" fill-opacity="1" transform="matrix(1,0,0,1,-511,-993)"></path></svg>