<svg id="SvgjsSvg1009" xmlns="http://www.w3.org/2000/svg" version="1.1" xmlns:xlink="http://www.w3.org/1999/xlink" xmlns:svgjs="http://svgjs.com/svgjs" width="47" height="31" viewBox="0 0 47 31"><title>Shape 1</title><desc>Created with Avocode.</desc><defs id="SvgjsDefs1010"></defs><path id="SvgjsPath1011" d="M539.006 1335L497.99399999999997 1335C496.34299999999996 1335 494.99999999999994 1336.36 494.99999999999994 1338.03L494.99999999999994 1362.97C494.99999999999994 1364.64 496.34299999999996 1366 497.99399999999997 1366L539.006 1366C540.6569999999999 1366 542 1364.64 542 1362.97L542 1338.03C542 1336.36 540.657 1335 539.006 1335ZM540.004 1362.97C540.004 1363.53 539.556 1363.98 539.006 1363.98L497.99399999999997 1363.98C497.443 1363.98 496.996 1363.53 496.996 1362.97L496.996 1338.03C496.996 1337.47 497.443 1337.02 497.99399999999997 1337.02L539.006 1337.02C539.5559999999999 1337.02 540.004 1337.47 540.004 1338.03ZM533.748 1343.86L523.038 1343.86C522.487 1343.86 522.041 1344.31 522.041 1344.87C522.041 1345.4299999999998 522.4870000000001 1345.8799999999999 523.038 1345.8799999999999L533.748 1345.8799999999999C534.2990000000001 1345.8799999999999 534.7460000000001 1345.4299999999998 534.7460000000001 1344.87C534.7460000000001 1344.31 534.2990000000001 1343.86 533.748 1343.86ZM533.748 1355.12L523.038 1355.12C522.487 1355.12 522.041 1355.57 522.041 1356.1299999999999C522.041 1356.6899999999998 522.4870000000001 1357.1399999999999 523.038 1357.1399999999999L533.748 1357.1399999999999C534.2990000000001 1357.1399999999999 534.7460000000001 1356.6899999999998 534.7460000000001 1356.1299999999999C534.7460000000001 1355.57 534.2990000000001 1355.12 533.748 1355.12ZM533.748 1349.49L523.038 1349.49C522.487 1349.49 522.041 1349.94 522.041 1350.5C522.041 1351.06 522.4870000000001 1351.51 523.038 1351.51L533.748 1351.51C534.2990000000001 1351.51 534.7460000000001 1351.06 534.7460000000001 1350.5C534.7460000000001 1349.94 534.2990000000001 1349.49 533.748 1349.49ZM513.428 1353.68C513.408 1353.68 511.581 1353.76 511.088 1351.76C511.754 1351.23 512.3140000000001 1350.49 512.714 1349.61C512.743 1349.61 512.773 1349.61 512.802 1349.61C513.0740000000001 1349.61 513.338 1349.49 513.511 1349.26C514.3489999999999 1348.17 514.784 1346.76 514.7379999999999 1345.28C514.641 1342.22 512.5329999999999 1339.8 509.9359999999999 1339.77C509.8649999999999 1339.77 509.80099999999993 1339.77 509.74999999999994 1339.77C509.74899999999997 1339.77 509.74799999999993 1339.77 509.74699999999996 1339.77C509.116 1339.5 508.453 1339.37 507.768 1339.3899999999999C506.306 1339.4399999999998 504.964 1340.1699999999998 503.98999999999995 1341.4499999999998C503.05699999999996 1342.6799999999998 502.57199999999995 1344.2799999999997 502.62499999999994 1345.9599999999998C502.63399999999996 1346.2399999999998 502.65599999999995 1346.5099999999998 502.69199999999995 1346.7499999999998C502.78899999999993 1347.4699999999998 502.98299999999995 1348.1499999999999 503.27099999999996 1348.7899999999997C503.40799999999996 1349.0899999999997 503.70199999999994 1349.2999999999997 504.03299999999996 1349.3199999999997C504.12399999999997 1349.3199999999997 504.21199999999993 1349.3099999999997 504.29699999999997 1349.2899999999997C504.70399999999995 1350.3099999999997 505.318 1351.1599999999996 506.05999999999995 1351.7499999999998C505.57699999999994 1353.7499999999998 503.73999999999995 1353.6799999999998 503.71999999999997 1353.6799999999998C501.756 1353.7499999999998 500.179 1355.3799999999999 500.179 1357.3799999999999L500.179 1361.06C500.179 1361.56 500.58099999999996 1361.97 501.077 1361.97L516.071 1361.97C516.567 1361.97 516.969 1361.56 516.969 1361.06L516.969 1357.3799999999999C516.969 1355.3799999999999 515.3910000000001 1353.7499999999998 513.428 1353.6799999999998ZM501.975 1360.15L501.975 1357.38C501.975 1356.3400000000001 502.812 1355.49 503.841 1355.49C503.862 1355.49 504.189 1355.48 504.33 1355.46C504.969 1357.22 506.64799999999997 1358.46 508.57399999999996 1358.46C510.49999999999994 1358.46 512.179 1357.22 512.818 1355.46C512.959 1355.48 513.286 1355.49 513.306 1355.49C514.335 1355.49 515.173 1356.34 515.173 1357.38L515.173 1360.15ZM504.483 1346.58C504.479 1346.55 504.475 1346.53 504.471 1346.5C504.444 1346.31 504.428 1346.12 504.421 1345.9C504.381 1344.64 504.734 1343.46 505.415 1342.5600000000002C506.055 1341.7200000000003 506.91200000000003 1341.2300000000002 507.826 1341.2000000000003C507.856 1341.2000000000003 508.574 1341.1500000000003 509.178 1341.5100000000002C509.304 1341.5800000000002 509.459 1341.6100000000001 509.605 1341.6000000000001C509.623 1341.6000000000001 509.89300000000003 1341.5900000000001 509.906 1341.5900000000001C511.515 1341.6000000000001 512.878 1343.2800000000002 512.943 1345.3400000000001C512.9499999999999 1345.5800000000002 512.941 1345.8100000000002 512.915 1346.0400000000002C512.3209999999999 1345.0000000000002 511.438 1344.2000000000003 510.38699999999994 1343.7600000000002C510.1619999999999 1343.6600000000003 509.9069999999999 1343.6600000000003 509.68199999999996 1343.7600000000002C509.45699999999994 1343.8600000000001 509.282 1344.0500000000002 509.19699999999995 1344.2800000000002C509.12799999999993 1344.4700000000003 509.0439999999999 1344.65 508.94699999999995 1344.8300000000002C508.71099999999996 1345.2600000000002 508.2289999999999 1345.5100000000002 507.68799999999993 1345.4900000000002C507.5799999999999 1345.4900000000002 507.4719999999999 1345.4900000000002 507.36499999999995 1345.4900000000002C506.83799999999997 1345.5100000000002 506.32499999999993 1345.6100000000001 505.83599999999996 1345.7900000000002C505.347 1345.9800000000002 504.89199999999994 1346.2400000000002 504.48299999999995 1346.5800000000002ZM505.734 1347.9C505.962 1347.73 506.212 1347.6100000000001 506.467 1347.49C506.931 1347.29 507.558 1347.3 507.626 1347.31C508.78299999999996 1347.35 509.839 1346.8 510.426 1345.87C510.885 1346.2199999999998 511.263 1346.6999999999998 511.527 1347.27C511.24899999999997 1349.31 509.995 1350.86 508.57099999999997 1350.86C507.301 1350.86 506.162 1349.6399999999999 505.734 1347.8999999999999ZM507.708 1352.57C507.98900000000003 1352.6399999999999 508.278 1352.6799999999998 508.571 1352.6799999999998C508.86800000000005 1352.6799999999998 509.158 1352.6399999999999 509.44000000000005 1352.57C509.72900000000004 1353.51 510.33700000000005 1354.3 511.13400000000007 1354.83C510.7510000000001 1355.8899999999999 509.7370000000001 1356.6399999999999 508.57400000000007 1356.6399999999999C507.41100000000006 1356.6399999999999 506.39700000000005 1355.8899999999999 506.01400000000007 1354.83C506.8110000000001 1354.3 507.41900000000004 1353.51 507.7080000000001 1352.57Z " fill="#000000" fill-opacity="1" transform="matrix(1,0,0,1,-495,-1335)"></path><path id="SvgjsPath1012" d="M539.006 1335L497.99399999999997 1335C496.34299999999996 1335 494.99999999999994 1336.36 494.99999999999994 1338.03L494.99999999999994 1362.97C494.99999999999994 1364.64 496.34299999999996 1366 497.99399999999997 1366L539.006 1366C540.6569999999999 1366 542 1364.64 542 1362.97L542 1338.03C542 1336.36 540.657 1335 539.006 1335ZM540.004 1362.97C540.004 1363.53 539.556 1363.98 539.006 1363.98L497.99399999999997 1363.98C497.443 1363.98 496.996 1363.53 496.996 1362.97L496.996 1338.03C496.996 1337.47 497.443 1337.02 497.99399999999997 1337.02L539.006 1337.02C539.5559999999999 1337.02 540.004 1337.47 540.004 1338.03ZM533.748 1343.86L523.038 1343.86C522.487 1343.86 522.041 1344.31 522.041 1344.87C522.041 1345.4299999999998 522.4870000000001 1345.8799999999999 523.038 1345.8799999999999L533.748 1345.8799999999999C534.2990000000001 1345.8799999999999 534.7460000000001 1345.4299999999998 534.7460000000001 1344.87C534.7460000000001 1344.31 534.2990000000001 1343.86 533.748 1343.86ZM533.748 1355.12L523.038 1355.12C522.487 1355.12 522.041 1355.57 522.041 1356.1299999999999C522.041 1356.6899999999998 522.4870000000001 1357.1399999999999 523.038 1357.1399999999999L533.748 1357.1399999999999C534.2990000000001 1357.1399999999999 534.7460000000001 1356.6899999999998 534.7460000000001 1356.1299999999999C534.7460000000001 1355.57 534.2990000000001 1355.12 533.748 1355.12ZM533.748 1349.49L523.038 1349.49C522.487 1349.49 522.041 1349.94 522.041 1350.5C522.041 1351.06 522.4870000000001 1351.51 523.038 1351.51L533.748 1351.51C534.2990000000001 1351.51 534.7460000000001 1351.06 534.7460000000001 1350.5C534.7460000000001 1349.94 534.2990000000001 1349.49 533.748 1349.49ZM513.428 1353.68C513.408 1353.68 511.581 1353.76 511.088 1351.76C511.754 1351.23 512.3140000000001 1350.49 512.714 1349.61C512.743 1349.61 512.773 1349.61 512.802 1349.61C513.0740000000001 1349.61 513.338 1349.49 513.511 1349.26C514.3489999999999 1348.17 514.784 1346.76 514.7379999999999 1345.28C514.641 1342.22 512.5329999999999 1339.8 509.9359999999999 1339.77C509.8649999999999 1339.77 509.80099999999993 1339.77 509.74999999999994 1339.77C509.74899999999997 1339.77 509.74799999999993 1339.77 509.74699999999996 1339.77C509.116 1339.5 508.453 1339.37 507.768 1339.3899999999999C506.306 1339.4399999999998 504.964 1340.1699999999998 503.98999999999995 1341.4499999999998C503.05699999999996 1342.6799999999998 502.57199999999995 1344.2799999999997 502.62499999999994 1345.9599999999998C502.63399999999996 1346.2399999999998 502.65599999999995 1346.5099999999998 502.69199999999995 1346.7499999999998C502.78899999999993 1347.4699999999998 502.98299999999995 1348.1499999999999 503.27099999999996 1348.7899999999997C503.40799999999996 1349.0899999999997 503.70199999999994 1349.2999999999997 504.03299999999996 1349.3199999999997C504.12399999999997 1349.3199999999997 504.21199999999993 1349.3099999999997 504.29699999999997 1349.2899999999997C504.70399999999995 1350.3099999999997 505.318 1351.1599999999996 506.05999999999995 1351.7499999999998C505.57699999999994 1353.7499999999998 503.73999999999995 1353.6799999999998 503.71999999999997 1353.6799999999998C501.756 1353.7499999999998 500.179 1355.3799999999999 500.179 1357.3799999999999L500.179 1361.06C500.179 1361.56 500.58099999999996 1361.97 501.077 1361.97L516.071 1361.97C516.567 1361.97 516.969 1361.56 516.969 1361.06L516.969 1357.3799999999999C516.969 1355.3799999999999 515.3910000000001 1353.7499999999998 513.428 1353.6799999999998ZM501.975 1360.15L501.975 1357.38C501.975 1356.3400000000001 502.812 1355.49 503.841 1355.49C503.862 1355.49 504.189 1355.48 504.33 1355.46C504.969 1357.22 506.64799999999997 1358.46 508.57399999999996 1358.46C510.49999999999994 1358.46 512.179 1357.22 512.818 1355.46C512.959 1355.48 513.286 1355.49 513.306 1355.49C514.335 1355.49 515.173 1356.34 515.173 1357.38L515.173 1360.15ZM504.483 1346.58C504.479 1346.55 504.475 1346.53 504.471 1346.5C504.444 1346.31 504.428 1346.12 504.421 1345.9C504.381 1344.64 504.734 1343.46 505.415 1342.5600000000002C506.055 1341.7200000000003 506.91200000000003 1341.2300000000002 507.826 1341.2000000000003C507.856 1341.2000000000003 508.574 1341.1500000000003 509.178 1341.5100000000002C509.304 1341.5800000000002 509.459 1341.6100000000001 509.605 1341.6000000000001C509.623 1341.6000000000001 509.89300000000003 1341.5900000000001 509.906 1341.5900000000001C511.515 1341.6000000000001 512.878 1343.2800000000002 512.943 1345.3400000000001C512.9499999999999 1345.5800000000002 512.941 1345.8100000000002 512.915 1346.0400000000002C512.3209999999999 1345.0000000000002 511.438 1344.2000000000003 510.38699999999994 1343.7600000000002C510.1619999999999 1343.6600000000003 509.9069999999999 1343.6600000000003 509.68199999999996 1343.7600000000002C509.45699999999994 1343.8600000000001 509.282 1344.0500000000002 509.19699999999995 1344.2800000000002C509.12799999999993 1344.4700000000003 509.0439999999999 1344.65 508.94699999999995 1344.8300000000002C508.71099999999996 1345.2600000000002 508.2289999999999 1345.5100000000002 507.68799999999993 1345.4900000000002C507.5799999999999 1345.4900000000002 507.4719999999999 1345.4900000000002 507.36499999999995 1345.4900000000002C506.83799999999997 1345.5100000000002 506.32499999999993 1345.6100000000001 505.83599999999996 1345.7900000000002C505.347 1345.9800000000002 504.89199999999994 1346.2400000000002 504.48299999999995 1346.5800000000002ZM505.734 1347.9C505.962 1347.73 506.212 1347.6100000000001 506.467 1347.49C506.931 1347.29 507.558 1347.3 507.626 1347.31C508.78299999999996 1347.35 509.839 1346.8 510.426 1345.87C510.885 1346.2199999999998 511.263 1346.6999999999998 511.527 1347.27C511.24899999999997 1349.31 509.995 1350.86 508.57099999999997 1350.86C507.301 1350.86 506.162 1349.6399999999999 505.734 1347.8999999999999ZM507.708 1352.57C507.98900000000003 1352.6399999999999 508.278 1352.6799999999998 508.571 1352.6799999999998C508.86800000000005 1352.6799999999998 509.158 1352.6399999999999 509.44000000000005 1352.57C509.72900000000004 1353.51 510.33700000000005 1354.3 511.13400000000007 1354.83C510.7510000000001 1355.8899999999999 509.7370000000001 1356.6399999999999 508.57400000000007 1356.6399999999999C507.41100000000006 1356.6399999999999 506.39700000000005 1355.8899999999999 506.01400000000007 1354.83C506.8110000000001 1354.3 507.41900000000004 1353.51 507.7080000000001 1352.57Z " fill="#484848" fill-opacity="1" transform="matrix(1,0,0,1,-495,-1335)"></path></svg>